<svg width="887" height="130" viewBox="0 0 887 130" fill="none" xmlns="http://www.w3.org/2000/svg">
<path d="M849.934 102C843.534 102 837.734 100.44 832.534 97.3197C827.414 94.1997 823.374 89.8797 820.414 84.3597C817.454 78.8397 815.974 72.7197 815.974 65.9997C815.974 59.2797 817.454 53.1597 820.414 47.6397C823.374 42.1197 827.414 37.7997 832.534 34.6797C837.734 31.5597 843.534 29.9997 849.934 29.9997C855.774 29.9997 860.814 31.1597 865.054 33.4797C869.294 35.7997 872.374 38.5997 874.294 41.8797V1.19971H886.654V100.32H874.294V90.1197C872.374 93.3997 869.294 96.1997 865.054 98.5197C860.814 100.84 855.774 102 849.934 102ZM851.014 91.0797C855.574 91.0797 859.614 89.9997 863.134 87.8397C866.734 85.5997 869.534 82.5997 871.534 78.8397C873.534 74.9997 874.534 70.7197 874.534 65.9997C874.534 61.2797 873.534 57.0397 871.534 53.2797C869.534 49.4397 866.734 46.4397 863.134 44.2797C859.614 42.0397 855.574 40.9197 851.014 40.9197C846.534 40.9197 842.534 41.9997 839.014 44.1597C835.574 46.3197 832.894 49.3197 830.974 53.1597C829.054 56.9997 828.094 61.2797 828.094 65.9997C828.094 70.7197 829.054 74.9997 830.974 78.8397C832.894 82.6797 835.574 85.6797 839.014 87.8397C842.534 89.9997 846.534 91.0797 851.014 91.0797Z" fill="white"/>
<path d="M751.191 31.68V42.12C752.951 39 755.831 36.2 759.831 33.72C763.911 31.24 768.791 30 774.471 30C779.831 30 784.591 31.24 788.751 33.72C792.991 36.2 796.271 39.72 798.591 44.28C800.911 48.76 802.071 54.04 802.071 60.12V100.32H789.711V62.28C789.711 55.4 788.111 50.12 784.911 46.44C781.791 42.68 777.431 40.8 771.831 40.8C767.911 40.8 764.391 41.92 761.271 44.16C758.151 46.32 755.671 49.24 753.831 52.92C752.071 56.6 751.191 60.56 751.191 64.8V100.32H738.831V31.68H751.191Z" fill="white"/>
<path d="M713.194 0C715.594 0 717.554 0.799999 719.074 2.4C720.674 3.92 721.474 5.84 721.474 8.15999C721.474 10.48 720.674 12.44 719.074 14.04C717.554 15.56 715.594 16.32 713.194 16.32C710.874 16.32 708.914 15.56 707.314 14.04C705.794 12.44 705.034 10.48 705.034 8.15999C705.034 5.84 705.794 3.92 707.314 2.4C708.914 0.799999 710.874 0 713.194 0ZM707.074 100.44V31.68H719.434V100.44H707.074Z" fill="white"/>
<path d="M601.995 4.19971L639.075 69.4797L676.155 4.19971H687.195V100.32H674.595V29.3997L643.635 84.1197H634.515L603.555 29.3997V100.32H590.955V4.19971H601.995Z" fill="white"/>
<path d="M577.419 31.6797L553.179 100.32H540.699L522.579 47.7597L504.579 100.32H492.099L467.859 31.6797H480.699L498.699 84.9597L516.579 31.6797H529.059L547.059 85.3197L565.179 31.6797H577.419Z" fill="white"/>
<path d="M426.681 30C433.321 30 439.321 31.56 444.681 34.68C450.041 37.8 454.201 42.12 457.161 47.64C460.201 53.08 461.721 59.2 461.721 66C461.721 72.8 460.201 78.96 457.161 84.48C454.201 89.92 450.041 94.2 444.681 97.32C439.321 100.44 433.321 102 426.681 102C419.961 102 413.921 100.44 408.561 97.32C403.281 94.2 399.121 89.92 396.081 84.48C393.041 78.96 391.521 72.8 391.521 66C391.521 59.2 393.041 53.08 396.081 47.64C399.121 42.12 403.281 37.8 408.561 34.68C413.921 31.56 419.961 30 426.681 30ZM426.681 40.92C422.201 40.92 418.201 42.04 414.681 44.28C411.241 46.44 408.521 49.44 406.521 53.28C404.601 57.04 403.641 61.28 403.641 66C403.641 70.72 404.601 75 406.521 78.84C408.521 82.6 411.241 85.6 414.681 87.84C418.201 90 422.201 91.08 426.681 91.08C431.081 91.08 435.041 90 438.561 87.84C442.081 85.6 444.801 82.6 446.721 78.84C448.641 75 449.601 70.72 449.601 66C449.601 61.28 448.641 57.04 446.721 53.28C444.801 49.44 442.081 46.44 438.561 44.28C435.041 42.04 431.081 40.92 426.681 40.92Z" fill="white"/>
<path d="M326.738 31.68V42.12C328.498 39 331.378 36.2 335.378 33.72C339.458 31.24 344.338 30 350.018 30C355.378 30 360.138 31.24 364.298 33.72C368.538 36.2 371.818 39.72 374.138 44.28C376.458 48.76 377.618 54.04 377.618 60.12V100.32H365.258V62.28C365.258 55.4 363.658 50.12 360.458 46.44C357.338 42.68 352.978 40.8 347.378 40.8C343.458 40.8 339.938 41.92 336.818 44.16C333.698 46.32 331.218 49.24 329.378 52.92C327.618 56.6 326.738 60.56 326.738 64.8V100.32H314.378V31.68H326.738Z" fill="white"/>
<path d="M265.75 68.8797L252.19 83.1597V100.32H239.83V1.19971H252.19V68.3997L286.39 31.6797H300.91L273.55 60.5997L303.79 100.32H289.15L265.75 68.8797Z" fill="white"/>
<path d="M228.224 31.6797L185.384 129.48H172.904L186.464 98.8797L157.064 31.6797H170.624L192.704 85.6797L215.384 31.6797H228.224Z" fill="white"/>
<path d="M108.02 102C101.62 102 95.8196 100.44 90.6196 97.32C85.4996 94.2 81.4596 89.88 78.4996 84.36C75.5396 78.84 74.0596 72.72 74.0596 66C74.0596 59.28 75.5396 53.16 78.4996 47.64C81.4596 42.12 85.4996 37.8 90.6196 34.68C95.8196 31.56 101.62 30 108.02 30C113.86 30 118.9 31.16 123.14 33.48C127.38 35.8 130.46 38.6 132.38 41.88V31.68H144.74V100.32H132.38V90.12C130.46 93.4 127.38 96.2 123.14 98.52C118.9 100.84 113.86 102 108.02 102ZM109.1 91.08C113.66 91.08 117.7 90 121.22 87.84C124.82 85.6 127.62 82.6 129.62 78.84C131.62 75 132.62 70.72 132.62 66C132.62 61.28 131.62 57.04 129.62 53.28C127.62 49.44 124.82 46.44 121.22 44.28C117.7 42.04 113.66 40.92 109.1 40.92C104.62 40.92 100.62 42 97.0996 44.16C93.6596 46.32 90.9796 49.32 89.0596 53.16C87.1396 57 86.1796 61.28 86.1796 66C86.1796 70.72 87.1396 75 89.0596 78.84C90.9796 82.68 93.6596 85.68 97.0996 87.84C100.62 90 104.62 91.08 109.1 91.08Z" fill="white"/>
<path d="M30.48 30C36 30 41 30.88 45.48 32.64C49.96 34.32 53.52 36.68 56.16 39.72C58.88 42.68 60.32 46.08 60.48 49.92H48.36C48.12 47.04 46.28 44.68 42.84 42.84C39.4 41 35.16 40.08 30.12 40.08C25.16 40.08 21.04 40.96 17.76 42.72C14.56 44.48 12.96 46.64 12.96 49.2C12.96 52.16 14.44 54.52 17.4 56.28C20.44 58.04 26 59.48 34.08 60.6C44.08 61.96 51.24 64.28 55.56 67.56C59.88 70.84 62.04 75.24 62.04 80.76C62.04 85.08 60.64 88.84 57.84 92.04C55.12 95.24 51.4 97.68 46.68 99.36C41.96 101.12 36.72 102 30.96 102C24.96 102 19.68 101.08 15.12 99.24C10.56 97.48 6.96 95 4.32 91.8C1.76 88.68 0.32 85.12 0 81.12H12.12C12.52 84.08 14.36 86.64 17.64 88.8C21 90.88 25.56 91.92 31.32 91.92C36.68 91.92 41.12 90.96 44.64 89.04C48.16 87.04 49.92 84.52 49.92 81.48C49.92 78.6 48.28 76.32 45 74.64C41.8 72.88 36.2 71.48 28.2 70.44C18.76 69.16 11.84 66.92 7.44 63.72C3.04 60.44 0.84 55.84 0.84 49.92C0.84 46 2.12 42.52 4.68 39.48C7.32 36.44 10.88 34.12 15.36 32.52C19.84 30.84 24.88 30 30.48 30Z" fill="white"/>
</svg>
