<svg width="1024" height="1024" viewBox="0 0 1024 1024" fill="none" xmlns="http://www.w3.org/2000/svg">
<path d="M0 432C0 280.786 0 205.179 29.4282 147.423C55.3141 96.6188 96.6188 55.3141 147.423 29.4282C205.179 0 280.786 0 432 0H592C743.214 0 818.821 0 876.577 29.4282C927.381 55.3141 968.686 96.6188 994.572 147.423C1024 205.179 1024 280.786 1024 432V592C1024 743.214 1024 818.821 994.572 876.577C968.686 927.381 927.381 968.686 876.577 994.572C818.821 1024 743.214 1024 592 1024H432C280.786 1024 205.179 1024 147.423 994.572C96.6188 968.686 55.3141 927.381 29.4282 876.577C0 818.821 0 743.214 0 592V432Z" fill="#1D1D1D"/>
<path d="M773.481 632C758.423 632 744.776 628.33 732.54 620.988C720.493 613.647 710.987 603.483 704.022 590.494C697.058 577.506 693.575 563.106 693.575 547.294C693.575 531.482 697.058 517.082 704.022 504.094C710.987 491.106 720.493 480.941 732.54 473.6C744.776 466.259 758.423 462.588 773.481 462.588C787.223 462.588 799.082 465.318 809.058 470.776C819.035 476.235 826.282 482.823 830.799 490.541V394.823H859.882V628.047H830.799V604.047C826.282 611.765 819.035 618.353 809.058 623.812C799.082 629.271 787.223 632 773.481 632ZM776.023 606.306C786.752 606.306 796.258 603.765 804.54 598.683C813.011 593.412 819.599 586.353 824.305 577.506C829.011 568.471 831.364 558.4 831.364 547.294C831.364 536.188 829.011 526.212 824.305 517.365C819.599 508.329 813.011 501.271 804.54 496.188C796.258 490.918 786.752 488.282 776.023 488.282C765.481 488.282 756.07 490.823 747.787 495.906C739.693 500.988 733.387 508.047 728.87 517.082C724.352 526.118 722.093 536.188 722.093 547.294C722.093 558.4 724.352 568.471 728.87 577.506C733.387 586.541 739.693 593.6 747.787 598.683C756.07 603.765 765.481 606.306 776.023 606.306Z" fill="url(#g1)"/>
<path d="M541.147 466.541V491.106C545.288 483.765 552.064 477.177 561.476 471.341C571.076 465.506 582.558 462.588 595.923 462.588C608.535 462.588 619.735 465.506 629.523 471.341C639.5 477.177 647.217 485.459 652.676 496.188C658.135 506.73 660.865 519.153 660.865 533.459V628.048H631.782V538.541C631.782 522.353 628.017 509.93 620.488 501.271C613.147 492.424 602.888 488 589.711 488C580.488 488 572.206 490.635 564.864 495.906C557.523 500.988 551.688 507.859 547.358 516.518C543.217 525.177 541.147 534.494 541.147 544.471V628.048H512.064V466.541H541.147Z" fill="url(#g2)"/>
<path d="M451.74 392C457.387 392 461.999 393.882 465.575 397.647C469.34 401.224 471.222 405.741 471.222 411.2C471.222 416.659 469.34 421.271 465.575 425.035C461.999 428.612 457.387 430.4 451.74 430.4C446.281 430.4 441.669 428.612 437.905 425.035C434.328 421.271 432.54 416.659 432.54 411.2C432.54 405.741 434.328 401.224 437.905 397.647C441.669 393.882 446.281 392 451.74 392ZM437.34 628.33V466.541H466.422V628.33H437.34Z" fill="url(#g3)"/>
<path d="M190.095 401.882L277.342 555.482L364.589 401.882H390.566V628.047H360.919V461.176L288.072 589.929H266.613L193.765 461.176V628.047H164.118V401.882H190.095Z" fill="url(#g4)"/>
<path d="M546.545 675.404L530.318 721.354H521.963L509.833 686.169L497.783 721.354H489.429L473.201 675.404H481.797L493.847 711.072L505.816 675.404H514.171L526.221 711.313L538.351 675.404H546.545Z" fill="url(#g5)"/>
<path d="M445.635 674.28C450.08 674.28 454.097 675.324 457.685 677.413C461.273 679.501 464.058 682.393 466.039 686.089C468.074 689.73 469.092 693.827 469.092 698.379C469.092 702.932 468.074 707.055 466.039 710.751C464.058 714.392 461.273 717.258 457.685 719.346C454.097 721.435 450.08 722.479 445.635 722.479C441.136 722.479 437.093 721.435 433.505 719.346C429.97 717.258 427.185 714.392 425.15 710.751C423.115 707.055 422.098 702.932 422.098 698.379C422.098 693.827 423.115 689.73 425.15 686.089C427.185 682.393 429.97 679.501 433.505 677.413C437.093 675.324 441.136 674.28 445.635 674.28ZM445.635 681.59C442.636 681.59 439.958 682.34 437.602 683.839C435.299 685.285 433.478 687.294 432.139 689.864C430.854 692.381 430.211 695.22 430.211 698.379C430.211 701.539 430.854 704.404 432.139 706.975C433.478 709.492 435.299 711.5 437.602 713C439.958 714.446 442.636 715.169 445.635 715.169C448.581 715.169 451.231 714.446 453.588 713C455.944 711.5 457.765 709.492 459.05 706.975C460.336 704.404 460.978 701.539 460.978 698.379C460.978 695.22 460.336 692.381 459.05 689.864C457.765 687.294 455.944 685.285 453.588 683.839C451.231 682.34 448.581 681.59 445.635 681.59Z" fill="url(#g5)"/>
<path d="M378.73 675.404V682.393C379.908 680.305 381.836 678.43 384.514 676.77C387.245 675.11 390.512 674.28 394.314 674.28C397.903 674.28 401.089 675.11 403.874 676.77C406.712 678.43 408.908 680.787 410.461 683.839C412.014 686.838 412.791 690.373 412.791 694.443V721.354H404.517V695.889C404.517 691.283 403.446 687.749 401.303 685.285C399.215 682.768 396.296 681.51 392.547 681.51C389.923 681.51 387.567 682.259 385.478 683.759C383.389 685.205 381.729 687.16 380.497 689.623C379.319 692.087 378.73 694.738 378.73 697.576V721.354H370.456V675.404H378.73Z" fill="url(#g5)"/>
<path d="M337.903 700.307L328.825 709.867V721.354H320.551V655H328.825V699.986L351.72 675.404H361.44L343.124 694.764L363.368 721.354H353.567L337.903 700.307Z" fill="url(#g5)"/>
<path d="M312.781 675.404L284.103 740.875H275.748L284.826 720.39L265.144 675.404H274.222L289.003 711.554L304.186 675.404H312.781Z" fill="url(#g5)"/>
<path d="M232.312 722.479C228.028 722.479 224.145 721.435 220.664 719.346C217.237 717.258 214.532 714.366 212.551 710.67C210.569 706.975 209.578 702.878 209.578 698.379C209.578 693.881 210.569 689.784 212.551 686.089C214.532 682.393 217.237 679.501 220.664 677.413C224.145 675.324 228.028 674.28 232.312 674.28C236.222 674.28 239.596 675.056 242.434 676.609C245.273 678.163 247.334 680.037 248.62 682.233V675.404H256.894V721.354H248.62V714.526C247.334 716.722 245.273 718.596 242.434 720.149C239.596 721.703 236.222 722.479 232.312 722.479ZM233.035 715.169C236.088 715.169 238.792 714.446 241.149 713C243.559 711.5 245.433 709.492 246.772 706.975C248.111 704.404 248.78 701.539 248.78 698.379C248.78 695.22 248.111 692.381 246.772 689.864C245.433 687.294 243.559 685.285 241.149 683.839C238.792 682.34 236.088 681.59 233.035 681.59C230.036 681.59 227.358 682.313 225.002 683.759C222.699 685.205 220.905 687.213 219.62 689.784C218.334 692.355 217.692 695.22 217.692 698.379C217.692 701.539 218.334 704.404 219.62 706.975C220.905 709.546 222.699 711.554 225.002 713C227.358 714.446 230.036 715.169 233.035 715.169Z" fill="url(#g5)"/>
<path d="M180.404 674.28C184.1 674.28 187.447 674.869 190.446 676.047C193.445 677.172 195.828 678.752 197.595 680.787C199.416 682.768 200.38 685.044 200.487 687.615H192.374C192.213 685.687 190.981 684.107 188.679 682.875C186.376 681.644 183.537 681.028 180.163 681.028C176.843 681.028 174.085 681.617 171.889 682.795C169.747 683.973 168.676 685.419 168.676 687.133C168.676 689.114 169.667 690.694 171.648 691.873C173.683 693.051 177.405 694.015 182.814 694.764C189.509 695.675 194.302 697.228 197.194 699.424C200.086 701.62 201.532 704.565 201.532 708.26C201.532 711.152 200.595 713.669 198.72 715.812C196.899 717.954 194.409 719.587 191.249 720.712C188.089 721.89 184.582 722.479 180.726 722.479C176.709 722.479 173.174 721.863 170.122 720.631C167.069 719.453 164.659 717.793 162.892 715.651C161.178 713.562 160.214 711.179 160 708.501H168.114C168.381 710.483 169.613 712.197 171.809 713.643C174.058 715.035 177.111 715.731 180.967 715.731C184.555 715.731 187.527 715.089 189.884 713.803C192.24 712.464 193.418 710.777 193.418 708.742C193.418 706.814 192.32 705.288 190.125 704.163C187.982 702.985 184.234 702.048 178.878 701.352C172.559 700.495 167.926 698.995 164.981 696.853C162.035 694.657 160.562 691.578 160.562 687.615C160.562 684.991 161.419 682.661 163.133 680.626C164.9 678.591 167.283 677.038 170.283 675.967C173.282 674.842 176.656 674.28 180.404 674.28Z" fill="url(#g5)"/>
<defs>
<linearGradient id="g1" x1="776" y1="395" x2="776" y2="632" gradientUnits="userSpaceOnUse"><stop stop-color="white"/><stop offset="1" stop-color="#999"/></linearGradient>
<linearGradient id="g2" x1="586" y1="463" x2="586" y2="628" gradientUnits="userSpaceOnUse"><stop stop-color="white"/><stop offset="1" stop-color="#999"/></linearGradient>
<linearGradient id="g3" x1="452" y1="392" x2="452" y2="628" gradientUnits="userSpaceOnUse"><stop stop-color="white"/><stop offset="1" stop-color="#999"/></linearGradient>
<linearGradient id="g4" x1="277" y1="402" x2="277" y2="628" gradientUnits="userSpaceOnUse"><stop stop-color="white"/><stop offset="1" stop-color="#999"/></linearGradient>
<linearGradient id="g5" x1="156" y1="694" x2="582" y2="694" gradientUnits="userSpaceOnUse"><stop stop-color="white"/><stop offset="1" stop-color="#999"/></linearGradient>
</defs>
</svg>
